<svg width="242" height="58" viewBox="0 0 242 58" fill="none" xmlns="http://www.w3.org/2000/svg">
    <path d="M85.8516 37.2868C85.0867 37.2868 84.2051 37.17 83.2065 36.9363L80.0516 36.0758L80.9121 33.4945C82.6967 34.1319 84.1838 34.4506 85.3736 34.4506C86.0109 34.4506 86.542 34.3019 86.9669 34.0044C87.3918 33.707 87.6043 33.3033 87.6043 32.7935C87.6043 32.2836 87.4662 31.9012 87.19 31.6462C86.9138 31.3913 86.4039 31.1682 85.6604 30.977L83.9395 30.5308C81.56 29.9147 80.3703 28.5126 80.3703 26.3243C80.3703 25.0071 80.8696 23.9236 81.8681 23.0738C82.8879 22.224 84.2157 21.7991 85.8516 21.7991C86.5102 21.7991 87.2856 21.9159 88.1779 22.1496L91.3328 23.01L90.4724 25.5913C88.7515 24.954 87.445 24.6353 86.5527 24.6353C85.9578 24.6353 85.4585 24.7946 85.0549 25.1133C84.6512 25.4108 84.4494 25.8038 84.4494 26.2924C84.4494 26.8023 84.5875 27.1847 84.8637 27.4397C85.1399 27.6946 85.6497 27.9177 86.3933 28.1089L88.0823 28.555C89.357 28.895 90.2706 29.4155 90.8229 30.1166C91.3753 30.7964 91.6515 31.6781 91.6515 32.7616C91.6515 34.0575 91.1629 35.141 90.1856 36.0121C89.2083 36.8619 87.7636 37.2868 85.8516 37.2868ZM99.481 37.2868C97.8876 37.2868 96.7616 36.8938 96.103 36.1077C95.4657 35.3216 95.147 34.1213 95.147 32.5066V24.8902H92.7888V22.0859H95.147V18.3574L99.1942 17.5607V22.0859H102.7V24.8902H99.1942V32.5704C99.1942 33.8238 99.7041 34.4506 100.724 34.4506C101.34 34.4506 101.999 34.2594 102.7 33.877L103.337 36.267C102.169 36.9469 100.883 37.2868 99.481 37.2868ZM109.404 37.2868C107.959 37.2868 106.812 36.8407 105.962 35.9484C105.112 35.0561 104.687 33.9938 104.687 32.7616C104.687 31.848 104.985 31.1151 105.58 30.5627C106.196 29.9891 107.152 29.5429 108.448 29.2243L113.579 27.9496V26.643C113.579 26.0269 113.387 25.5382 113.005 25.1771C112.644 24.8159 112.134 24.6353 111.475 24.6353C110.732 24.6353 109.053 25.1983 106.44 26.3243L105.325 23.743L108.958 22.4046C110.062 22.0009 110.87 21.7991 111.38 21.7991C113.313 21.7991 114.832 22.309 115.937 23.3287C117.063 24.3273 117.626 25.6445 117.626 27.2803V32.7616C117.626 33.1652 117.689 33.7707 117.817 34.578C117.966 35.3641 118.157 36.0333 118.391 36.5857L114.917 37.2868C114.492 36.8194 114.046 36.1714 113.579 35.3429C112.155 36.6388 110.764 37.2868 109.404 37.2868ZM110.838 34.4506C111.666 34.4506 112.58 33.9726 113.579 33.0165V29.7979L110.392 30.722C109.372 31.0195 108.862 31.5825 108.862 32.411C108.862 33.0484 109.043 33.5477 109.404 33.9088C109.765 34.27 110.243 34.4506 110.838 34.4506ZM126.043 37.2868C124.45 37.2868 123.324 36.8938 122.665 36.1077C122.028 35.3216 121.709 34.1213 121.709 32.5066V24.8902H119.351V22.0859H121.709V18.3574L125.756 17.5607V22.0859H129.262V24.8902H125.756V32.5704C125.756 33.8238 126.266 34.4506 127.286 34.4506C127.902 34.4506 128.561 34.2594 129.262 33.877L129.899 36.267C128.731 36.9469 127.445 37.2868 126.043 37.2868ZM171.052 37H167.005V28.3001C167.005 27.0254 166.814 26.1012 166.431 25.5276C166.07 24.9327 165.486 24.6353 164.679 24.6353C163.871 24.6353 163 25.1133 162.066 26.0694V37H158.018V28.3001C158.018 27.0254 157.838 26.1012 157.477 25.5276C157.115 24.9327 156.521 24.6353 155.692 24.6353C154.906 24.6353 154.035 25.1133 153.079 26.0694V37H149.032V26.3243C149.032 25.9206 148.957 25.3258 148.809 24.5397C148.681 23.7324 148.501 23.0525 148.267 22.5002L151.709 21.7991C152.155 22.2452 152.611 22.8932 153.079 23.743C154.417 22.4471 155.809 21.7991 157.254 21.7991C159.399 21.7991 160.855 22.5533 161.619 24.0617C162.087 23.4456 162.756 22.9144 163.627 22.4683C164.498 22.0221 165.369 21.7991 166.24 21.7991C167.855 21.7991 169.055 22.2665 169.841 23.2013C170.649 24.136 171.052 25.5913 171.052 27.5671V37ZM178.4 37.2868C176.955 37.2868 175.808 36.8407 174.958 35.9484C174.109 35.0561 173.684 33.9938 173.684 32.7616C173.684 31.848 173.981 31.1151 174.576 30.5627C175.192 29.9891 176.148 29.5429 177.444 29.2243L182.575 27.9496V26.643C182.575 26.0269 182.384 25.5382 182.001 25.1771C181.64 24.8159 181.13 24.6353 180.471 24.6353C179.728 24.6353 178.05 25.1983 175.436 26.3243L174.321 23.743L177.954 22.4046C179.059 22.0009 179.866 21.7991 180.376 21.7991C182.309 21.7991 183.828 22.309 184.933 23.3287C186.059 24.3273 186.622 25.6445 186.622 27.2803V32.7616C186.622 33.1652 186.686 33.7707 186.813 34.578C186.962 35.3641 187.153 36.0333 187.387 36.5857L183.913 37.2868C183.488 36.8194 183.042 36.1714 182.575 35.3429C181.151 36.6388 179.76 37.2868 178.4 37.2868ZM179.834 34.4506C180.663 34.4506 181.576 33.9726 182.575 33.0165V29.7979L179.388 30.722C178.368 31.0195 177.858 31.5825 177.858 32.411C177.858 33.0484 178.039 33.5477 178.4 33.9088C178.761 34.27 179.239 34.4506 179.834 34.4506ZM194.299 37H190.252V26.3243C190.252 25.9206 190.178 25.3258 190.029 24.5397C189.901 23.7324 189.721 23.0525 189.487 22.5002L192.929 21.7991C193.587 22.4577 194.044 23.35 194.299 24.476C194.724 23.6262 195.287 22.9676 195.988 22.5002C196.71 22.0328 197.486 21.7991 198.314 21.7991C198.782 21.7991 199.207 21.8734 199.589 22.0221L198.888 25.4957H197.836C196.838 25.4957 196.052 25.7401 195.478 26.2287C194.926 26.6961 194.533 27.4822 194.299 28.5869V37ZM215.344 37H210.372L205.433 29.288V37H201.386V15.7123L205.433 14.9156V28.1726L210.468 22.0859H215.025L209.034 28.7462L215.344 37ZM222.598 37.2868C220.197 37.2868 218.381 36.5751 217.149 35.1517C215.938 33.707 215.332 31.8162 215.332 29.4792C215.332 27.1422 215.959 25.2833 217.212 23.9023C218.466 22.5002 220.208 21.7991 222.439 21.7991C226.751 21.7991 228.908 24.0404 228.908 28.5232C228.908 28.9906 228.855 29.3836 228.748 29.7023H219.507C219.507 31.2957 219.794 32.4854 220.367 33.2715C220.962 34.0575 221.78 34.4506 222.821 34.4506C223.989 34.4506 225.519 34.0257 227.41 33.1759L228.525 35.7572L225.147 37C224.574 37.1912 223.724 37.2868 222.598 37.2868ZM222.215 24.6353C221.366 24.6353 220.696 24.9327 220.208 25.5276C219.74 26.1225 219.507 26.866 219.507 27.7583H224.701C224.701 25.6763 223.873 24.6353 222.215 24.6353ZM236.844 37.2868C235.25 37.2868 234.124 36.8938 233.466 36.1077C232.828 35.3216 232.51 34.1213 232.51 32.5066V24.8902H230.151V22.0859H232.51V18.3574L236.557 17.5607V22.0859H240.062V24.8902H236.557V32.5704C236.557 33.8238 237.067 34.4506 238.086 34.4506C238.702 34.4506 239.361 34.2594 240.062 33.877L240.7 36.267C239.531 36.9469 238.246 37.2868 236.844 37.2868Z" fill="#54618E"/>
    <path d="M144.411 37H140.555V32.0924H131.855L130.995 29.6067L140.077 16.6046H144.411V29.0968H146.451V32.0924H144.411V37ZM140.555 29.0968V20.8112L134.914 29.0968H140.555Z" fill="#D653D2"/>
    <mask id="mask0_1457_20129" style="mask-type:alpha" maskUnits="userSpaceOnUse" x="0" y="0" width="60" height="58">
        <ellipse cx="30" cy="29" rx="30" ry="29" fill="url(#paint0_linear_1457_20129)"/>
    </mask>
    <g mask="url(#mask0_1457_20129)">
        <ellipse cx="30" cy="29" rx="30" ry="29" fill="url(#paint1_linear_1457_20129)"/>
        <path d="M39.539 37.0481V4.81461C39.539 4.32161 39.554 3.78511 39.584 3.20511C39.644 2.62511 39.704 2.03061 39.764 1.42161L12.224 37.0481H39.539ZM65.0317 37.0481V39.3101C65.0317 39.6291 64.9267 39.8901 64.7167 40.0931C64.5367 40.2671 64.2367 40.3541 63.8167 40.3541H43.319V58.0151H39.539V40.3541H9.43402C8.98402 40.3541 8.63902 40.2671 8.39902 40.0931C8.15902 39.8901 7.99402 39.6291 7.90402 39.3101L7.49902 37.2656L39.494 -3.62439H43.319V37.0481H65.0317Z" fill="white"/>
    </g>
    <defs>
        <linearGradient id="paint0_linear_1457_20129" x1="69" y1="-17.4" x2="19.6538" y2="59.5417" gradientUnits="userSpaceOnUse">
            <stop stop-color="#FF00AA"/>
            <stop offset="1" stop-color="#8912DE"/>
        </linearGradient>
        <linearGradient id="paint1_linear_1457_20129" x1="69" y1="-17.4" x2="19.6538" y2="59.5417" gradientUnits="userSpaceOnUse">
            <stop stop-color="#FF00AA"/>
            <stop offset="1" stop-color="#8912DE"/>
        </linearGradient>
    </defs>
</svg>
